<?xml version="1.0" encoding="UTF-8" standalone="no"?>
<svg
   xmlns:dc="http://purl.org/dc/elements/1.1/"
   xmlns:cc="http://creativecommons.org/ns#"
   xmlns:rdf="http://www.w3.org/1999/02/22-rdf-syntax-ns#"
   xmlns:svg="http://www.w3.org/2000/svg"
   xmlns="http://www.w3.org/2000/svg"
   xmlns:xlink="http://www.w3.org/1999/xlink"
   xmlns:sodipodi="http://sodipodi.sourceforge.net/DTD/sodipodi-0.dtd"
   xmlns:inkscape="http://www.inkscape.org/namespaces/inkscape"
   fill="#2BBBAD"
   height="48"
   viewBox="0 0 24 24"
   width="48"
   id="svg4154"
   version="1.1"
   inkscape:version="0.91 r13725"
   sodipodi:docname="case-create.svg">
  <metadata
     id="metadata4166">
    <rdf:RDF>
      <cc:Work
         rdf:about="">
        <dc:format>image/svg+xml</dc:format>
        <dc:type
           rdf:resource="http://purl.org/dc/dcmitype/StillImage" />
        <dc:title></dc:title>
      </cc:Work>
    </rdf:RDF>
  </metadata>
  <sodipodi:namedview
     pagecolor="#ffffff"
     bordercolor="#666666"
     borderopacity="1"
     objecttolerance="10"
     gridtolerance="10"
     guidetolerance="10"
     inkscape:pageopacity="0"
     inkscape:pageshadow="2"
     inkscape:window-width="1536"
     inkscape:window-height="801"
     id="namedview4164"
     showgrid="true"
     inkscape:zoom="8"
     inkscape:cx="34.765688"
     inkscape:cy="21.549969"
     inkscape:window-x="-8"
     inkscape:window-y="-8"
     inkscape:window-maximized="1"
     inkscape:current-layer="svg4154">
    <inkscape:grid
       type="xygrid"
       id="grid4708"
       spacingx="0.25"
       spacingy="0.25"
       enabled="true" />
  </sodipodi:namedview>
  <defs
     id="defs4156">
    <path
       d="M0 0h24v24H0z"
       id="a" />
  </defs>
  <clipPath
     id="b">
    <use
       overflow="visible"
       xlink:href="#a"
       id="use4160" />
  </clipPath>
  <path
     clip-path="url(#b)"
     d="M 20,7 16,7 16,5 C 16,4.45 15.78,3.95 15.41,3.59 15.05,3.22 14.55,3 14,3 L 10,3 C 8.9,3 8,3.9 8,5 L 8,7 4,7 C 2.9,7 2,7.9 2,9 l 0,11 c 0,1.1 0.9,2 2,2 l 16,0 c 1.1,0 2,-0.9 2,-2 L 22,9 C 22,7.9 21.1,7 20,7 Z m -10,-2 4,0 0,2 -4,0 z m 2.752042,5.500305 -0.0023,2.747423 2.750219,7.4e-4 -0.0014,1.499265 -2.746352,0.0031 -9.83e-4,2.74962 -1.502204,-0.001 4.54e-4,-2.746021 -2.7457948,-0.0015 -0.00379,-1.498615 2.7510094,-0.0037 -0.0015,-2.749038 z"
     id="path4162"
     inkscape:connector-curvature="0"
     style="fill:#2bbbad"
     sodipodi:nodetypes="scscssscsssssssscccccccccccccccccc" />
</svg>
