<svg fill="white" stroke="white" id="Layer_1" data-name="Layer 1" xmlns="http://www.w3.org/2000/svg" viewBox="0 0 500.45 300.49"><defs><style>.cls-1{font-size:19px;}.cls-1,.cls-2{font-family:Roboto;font-style:italic;}.cls-2{font-size:23px;font-weight:700;}.cls-3{fill:none;}</style></defs><title>no_courses_icon</title><text class="cls-1" transform="translate(17.24 264.28)">Nie skatalogowaliśmy jes<tspan x="210.34" y="0">z</tspan><tspan x="219.42" y="0">c</tspan><tspan x="229.16" y="0">z</tspan><tspan x="238.24" y="0">e kursów z tej dziedzin</tspan><tspan x="425.24" y="0">y</tspan><tspan x="433.06" y="0">, ale </tspan><tspan x="32.25" y="22.8">ciągle p</tspan><tspan x="96.62" y="22.8">r</tspan><tspan x="102.58" y="22.8">acujemy nad pos</tspan><tspan x="242.91" y="22.8">z</tspan><tspan x="251.99" y="22.8">erzaniem nas</tspan><tspan x="363.08" y="22.8">z</tspan><tspan x="372.16" y="22.8">ej baz</tspan><tspan x="420.95" y="22.8">y</tspan><tspan x="428.77" y="22.8">.</tspan></text><text class="cls-2" transform="translate(184.35 238.49)">B<tspan x="14.35" y="0">r</tspan><tspan x="22.27" y="0">ak kursów</tspan></text><path class="cls-3" d="M359.64,304.16H125.33V69.84H359.64V304.16Z" transform="translate(0 -67.09)"/><path d="M246.43,145.92A50.61,50.61,0,1,0,297,196.52,50.62,50.62,0,0,0,246.43,145.92Zm-40.48,50.61A40.47,40.47,0,0,1,246.43,156a40,40,0,0,1,24.8,8.55L214.5,221.32A40,40,0,0,1,205.95,196.52ZM246.43,237a40,40,0,0,1-24.8-8.55l56.73-56.73a40,40,0,0,1,8.55,24.8A40.47,40.47,0,0,1,246.43,237Z" transform="translate(0 -67.09)"/><path d="M157.72,106.14V262.35a19.58,19.58,0,0,0,19.53,19.53H313.93a19.58,19.58,0,0,0,19.53-19.53V106.14a19.58,19.58,0,0,0-19.53-19.53H273.12a29.17,29.17,0,0,0-55.06,0H177.25A19.58,19.58,0,0,0,157.72,106.14Zm97.63-9.76a9.76,9.76,0,1,1-9.76-9.76A9.79,9.79,0,0,1,255.35,96.38Zm-78.1,9.76h19.53v29.29H294.4V106.14h19.53V262.35H177.25V106.14Z" transform="translate(0 -67.09)"/><text y="-67.09"/></svg>