<svg fill="white" stroke="white" id="Layer_1" data-name="Layer 1" xmlns="http://www.w3.org/2000/svg" viewBox="0 0 500.45 337.62"><defs><style>.cls-1{font-size:19px;}.cls-1,.cls-2{font-family:Roboto;font-style:italic;}.cls-2{font-size:23px;font-weight:700;}.cls-3,.cls-4{fill:none;}.cls-4{stroke:#white;stroke-miterlimit:10;stroke-width:11px;}</style></defs><title>no_skills</title><text class="cls-1" transform="translate(75.68 301.41)">Nie dodałeś jes<tspan x="127.1" y="0">z</tspan><tspan x="136.18" y="0">c</tspan><tspan x="145.92" y="0">z</tspan><tspan x="155.01" y="0">e żadn</tspan><tspan x="209.61" y="0">y</tspan><tspan x="218.31" y="0">ch umiejętności</tspan></text><text class="cls-2" transform="translate(151.88 275.62)">B<tspan x="14.35" y="0">r</tspan><tspan x="22.27" y="0">ak umiejętności</tspan></text><path class="cls-3" d="M393,351.79H83.07V41.9H393V351.79Z" transform="translate(-10.05 -29.96)"/><path d="M243.23,142.51a66.93,66.93,0,1,0,66.93,66.93A67,67,0,0,0,243.23,142.51Zm-53.54,66.93a53.53,53.53,0,0,1,53.54-53.54A52.89,52.89,0,0,1,276,167.21l-75,75A52.89,52.89,0,0,1,189.69,209.44ZM243.23,263a52.89,52.89,0,0,1-32.79-11.31l75-75a52.89,52.89,0,0,1,11.31,32.79A53.53,53.53,0,0,1,243.23,263Z" transform="translate(-10.05 -29.96)"/><text x="-10.05" y="-29.96"/><path d="M176.3,209.44a66.93,66.93,0,1,0,66.93-66.93A67,67,0,0,0,176.3,209.44ZM243.23,263a53.53,53.53,0,0,1-53.54-53.54A52.89,52.89,0,0,1,201,176.64l75,75A52.89,52.89,0,0,1,243.23,263Zm53.54-53.54a52.89,52.89,0,0,1-11.31,32.79l-75-75a52.89,52.89,0,0,1,32.79-11.31A53.53,53.53,0,0,1,296.77,209.44Z" transform="translate(-10.05 -29.96)"/><circle class="cls-4" cx="94.7" cy="136.7" r="44.39" transform="translate(-39.16 -4.28) rotate(-13.4)"/><rect x="124.75" y="169.8" width="70.08" height="13.89" transform="translate(106.24 -87.48) rotate(31.6)"/><circle class="cls-4" cx="423.55" cy="86.97" r="49.76" transform="translate(272.2 465.65) rotate(-82.53)"/><rect x="287.37" y="141.89" width="111.26" height="13.89" transform="translate(695.64 27.97) rotate(142.47)"/><circle class="cls-4" cx="284.13" cy="68.46" r="32.99" transform="translate(-7.12 118.11) rotate(-29.35)"/><rect x="239.06" y="121.21" width="56.71" height="13.89" transform="matrix(-0.27, 0.96, -0.96, -0.27, 452.89, -124.74)"/></svg>