<svg fill="white" stroke="white" id="Layer_1" data-name="Layer 1" xmlns="http://www.w3.org/2000/svg" viewBox="0 0 561.23 360.03"><defs><style>.cls-1{font-size:19px;}.cls-1,.cls-3{font-family:Roboto;font-style:italic;}.cls-2,.cls-4{fill:none;stroke:white;stroke-miterlimit:10;}.cls-2{stroke-width:11px;}.cls-3{font-size:23px;font-weight:700;}.cls-4{stroke-width:18px;}</style></defs><title>brak_ulubionych_projektow</title><text class="cls-1" transform="translate(95.5 323.83)">Nie dodałeś jes<tspan x="127.1" y="0">z</tspan><tspan x="136.18" y="0">c</tspan><tspan x="145.92" y="0">z</tspan><tspan x="155.01" y="0">e żadnego p</tspan><tspan x="255.6" y="0">r</tspan><tspan x="261.74" y="0">ojektu do ulubion</tspan><tspan x="403.82" y="0">y</tspan><tspan x="412.52" y="0">ch.</tspan></text><text x="55.06" y="-47.36"/><rect x="269.91" y="135.48" width="40.48" height="15.91" transform="matrix(0.26, -0.97, 0.97, 0.26, 131.14, 338.85)"/><circle class="cls-2" cx="304.89" cy="90.13" r="37.27" transform="translate(50.72 116.62) rotate(-29.9)"/><rect x="91.72" y="244.66" width="95.61" height="15.91" transform="translate(366.35 437.16) rotate(172.39)"/><circle class="cls-2" cx="61.27" cy="261.13" r="35.33" transform="translate(-128.35 103.9) rotate(-52.61)"/><rect x="320.77" y="197.79" width="75.41" height="15.91" transform="translate(13.46 54.61) rotate(-15.31)"/><circle class="cls-2" cx="427.92" cy="186.73" r="36.43" transform="translate(47.22 -28.24) rotate(-2.54)"/><text class="cls-3" transform="translate(236.08 293.49)">B<tspan x="14.35" y="0">r</tspan><tspan x="22.27" y="0">ak p</tspan><tspan x="64.71" y="0">r</tspan><tspan x="72.56" y="0">ojek</tspan><tspan x="115.39" y="0">t</tspan><tspan x="122.7" y="0">ów</tspan></text><path d="M275.72,202.84a22,22,0,0,0-16.57,7.7,22,22,0,0,0-16.57-7.7,20.05,20.05,0,0,0-20.25,20.25c0,13.92,12.52,25.26,31.48,42.49l5.34,4.82,5.34-4.86C283.46,248.35,296,237,296,223.09A20.05,20.05,0,0,0,275.72,202.84Zm-16.2,57.25-0.37.37-0.37-.37c-17.53-15.87-29.09-26.36-29.09-37a12.58,12.58,0,0,1,12.89-12.89,14.39,14.39,0,0,1,13.14,8.69h6.89c1.91-5,7.44-8.69,13.11-8.69a12.58,12.58,0,0,1,12.89,12.89C288.61,233.73,277,244.23,259.52,260.1Z" transform="translate(55.06 -47.36)"/><circle class="cls-4" cx="259.16" cy="232" r="69.74" transform="translate(-26.09 112.71) rotate(-29.9)"/></svg>