<?xml version="1.0" encoding="UTF-8" standalone="no"?>
<svg
   xmlns:dc="http://purl.org/dc/elements/1.1/"
   xmlns:cc="http://creativecommons.org/ns#"
   xmlns:rdf="http://www.w3.org/1999/02/22-rdf-syntax-ns#"
   xmlns:svg="http://www.w3.org/2000/svg"
   xmlns="http://www.w3.org/2000/svg"
   xmlns:sodipodi="http://sodipodi.sourceforge.net/DTD/sodipodi-0.dtd"
   xmlns:inkscape="http://www.inkscape.org/namespaces/inkscape"
   version="1.1"
   id="Layer_1"
   x="0px"
   y="0px"
   viewBox="0 0 100 100"
   style="enable-background:new 0 0 100 100;"
   xml:space="preserve"
   inkscape:version="0.91 r13725"
   sodipodi:docname="skills-not-intrested.svg"><metadata
   id="metadata4172"><rdf:RDF><cc:Work
       rdf:about=""><dc:format>image/svg+xml</dc:format><dc:type
         rdf:resource="http://purl.org/dc/dcmitype/StillImage" /><dc:title></dc:title></cc:Work></rdf:RDF></metadata><defs
   id="defs4170">
	

	
	
	
	
</defs><sodipodi:namedview
   pagecolor="#ffffff"
   bordercolor="#666666"
   borderopacity="1"
   objecttolerance="10"
   gridtolerance="10"
   guidetolerance="10"
   inkscape:pageopacity="0"
   inkscape:pageshadow="2"
   inkscape:window-width="1536"
   inkscape:window-height="801"
   id="namedview4168"
   showgrid="true"
   inkscape:zoom="4.4264885"
   inkscape:cx="43.636075"
   inkscape:cy="48.378991"
   inkscape:window-x="-8"
   inkscape:window-y="-8"
   inkscape:window-maximized="1"
   inkscape:current-layer="Layer_1"><inkscape:grid
     type="xygrid"
     id="grid4230" /></sodipodi:namedview>
<style
   type="text/css"
   id="style4137">
	.st0{fill:#FFFFFF;stroke:#02E677;stroke-miterlimit:10;}
	.st1{fill:none;stroke:#02E677;stroke-miterlimit:10;}
	.st2{fill:none;}
	.st3{enable-background:new    ;}
	.st4{fill:#02E677;}
</style>









<path
   id="path4154"
   d="m 19.213288,49.438173 c 0.810176,-1.4957 1.273134,-3.106454 1.273134,-4.832262 0,-5.407531 -4.398101,-9.894632 -9.953598,-9.894632 -5.5554976,0 -9.9535996,4.372046 -9.9535996,9.894632 0,5.522585 4.398102,9.894632 9.9535996,9.894632 2.662009,0 5.208278,-1.035485 6.944371,-2.876347"
   class="st1"
   inkscape:connector-curvature="0"
   style="fill:none;stroke:#ffffff;stroke-width:1.15396178;stroke-miterlimit:10;stroke-opacity:1" /><path
   style="fill:none;stroke:#ffffff;stroke-width:1.15396178;stroke-miterlimit:10;stroke-opacity:1"
   inkscape:connector-curvature="0"
   class="st0"
   d="m 54.74532,58.067212 c 1.620354,2.531185 2.662009,5.522586 2.662009,8.859147 0,8.859148 -7.291589,16.107541 -16.203532,16.107541 -8.911944,0 -16.203533,-7.248393 -16.203533,-16.107541 0,-3.221508 0.925916,-6.097854 2.546269,-8.629039"
   id="path4139" /><path
   style="fill:none;stroke:#ffffff;stroke-width:1.15396178;stroke-miterlimit:10;stroke-opacity:1"
   inkscape:connector-curvature="0"
   class="st0"
   d="m 28.935407,56.686566 c 3.009228,-3.56667 7.40733,-5.752693 12.499869,-5.752693 4.513841,0 8.680464,1.840862 11.573952,4.947316"
   id="path4141" /><path
   style="fill:#ffffff;stroke:#02e677;stroke-width:1.15396178;stroke-miterlimit:10"
   inkscape:connector-curvature="0"
   class="st0"
   d="M 63.541524,46.446773"
   id="path4143" /><path
   style="fill:none;stroke:#ffffff;stroke-width:1.15396178;stroke-miterlimit:10;stroke-opacity:1"
   inkscape:connector-curvature="0"
   class="st0"
   d="m 63.541524,46.446773 c -3.009228,-3.566669 -4.86106,-8.168825 -4.86106,-13.231195 0,-11.160224 9.143422,-20.249478 20.370156,-20.249478 11.226733,0 20.370156,9.089254 20.370156,20.249478 0,11.160226 -9.143423,20.24948 -20.370156,20.24948 -5.208279,0 -10.069339,-1.955916 -13.657264,-5.177424"
   id="path4145" /><line
   id="line4148"
   y2="58.642479"
   x2="27.083572"
   y1="51.624195"
   x1="17.477196"
   class="st1"
   style="fill:none;stroke:#ffffff;stroke-width:1.15396178;stroke-miterlimit:10;stroke-opacity:1" /><path
   id="path4150"
   d="m 17.456016,51.638317 c 0.115739,-0.115054 0.231479,-0.230109 0.462958,-0.460215"
   class="st1"
   inkscape:connector-curvature="0"
   style="fill:none;stroke:#ffffff;stroke-width:1.15396178;stroke-miterlimit:10;stroke-opacity:1" /><line
   style="fill:none;stroke:#ffffff;stroke-width:1.15396178;stroke-miterlimit:10;stroke-opacity:1"
   class="st1"
   x1="19.676247"
   y1="48.977959"
   x2="29.166883"
   y2="55.996243"
   id="line4156" /><line
   style="fill:none;stroke:#ffffff;stroke-width:1.15396178;stroke-miterlimit:10;stroke-opacity:1"
   class="st1"
   x1="52.777748"
   y1="55.190865"
   x2="63.194305"
   y2="46.101612"
   id="line4158" /><line
   style="fill:none;stroke:#ffffff;stroke-width:1.15396178;stroke-miterlimit:10;stroke-opacity:1"
   class="st1"
   x1="54.976799"
   y1="58.527428"
   x2="65.972054"
   y2="48.632797"
   id="line4160" /><rect
   style="fill:none"
   x="69.444237"
   y="19.52417"
   class="st2"
   width="20.833113"
   height="29.338734"
   id="rect4162" /><path
   id="path4166"
   d="m 87.03108,34.702888 c 0,3.106454 -0.694437,5.522587 -2.083311,7.13334 -1.388874,1.610754 -3.356446,2.531184 -5.902715,2.531184 -2.54627,0 -4.513842,-0.805377 -5.902716,-2.531184 -1.388874,-1.725808 -2.083311,-4.026886 -2.083311,-7.13334 l 0,-4.141939 c 0,-3.106454 0.694437,-5.522585 2.083311,-7.133339 1.388874,-1.610754 3.356446,-2.531185 5.902716,-2.531185 2.546269,0 4.513841,0.805377 5.902715,2.531185 1.388874,1.725809 2.083311,4.026885 2.083311,7.133339 l 0,4.141939 z m -5.324018,-4.832262 c 0,-1.610754 -0.231479,-2.876345 -0.694437,-3.681722 -0.462958,-0.805377 -1.157395,-1.265593 -2.083311,-1.265593 -0.925916,0 -1.620353,0.345162 -1.967572,1.150539 -0.347218,0.805377 -0.694437,1.840861 -0.694437,3.451616 l 0,5.867746 c 0,1.725808 0.231479,2.991401 0.694437,3.796778 0.462958,0.805377 1.157395,1.150538 2.083312,1.150538 0.925916,0 1.620353,-0.345161 1.967571,-1.150538 0.462958,-0.805377 0.694437,-1.955916 0.694437,-3.681724 l 0,-5.637639 z"
   class="st4"
   inkscape:connector-curvature="0"
   style="fill:#ffffff;fill-opacity:1" />
</svg>