<?xml version="1.0" encoding="UTF-8" standalone="no"?>
<!-- Generator: Adobe Illustrator 21.0.2, SVG Export Plug-In . SVG Version: 6.00 Build 0)  -->

<svg
   xmlns:dc="http://purl.org/dc/elements/1.1/"
   xmlns:cc="http://creativecommons.org/ns#"
   xmlns:rdf="http://www.w3.org/1999/02/22-rdf-syntax-ns#"
   xmlns:svg="http://www.w3.org/2000/svg"
   xmlns="http://www.w3.org/2000/svg"
   xmlns:sodipodi="http://sodipodi.sourceforge.net/DTD/sodipodi-0.dtd"
   xmlns:inkscape="http://www.inkscape.org/namespaces/inkscape"
   version="1.1"
   id="Layer_1"
   x="0px"
   y="0px"
   viewBox="0 0 100 100"
   style="enable-background:new 0 0 100 100;"
   xml:space="preserve"
   inkscape:version="0.91 r13725"
   sodipodi:docname="skills-professional.svg"><metadata
   id="metadata6963"><rdf:RDF><cc:Work
       rdf:about=""><dc:format>image/svg+xml</dc:format><dc:type
         rdf:resource="http://purl.org/dc/dcmitype/StillImage" /><dc:title></dc:title></cc:Work></rdf:RDF></metadata><defs
   id="defs6961">
	
</defs><sodipodi:namedview
   pagecolor="#ffffff"
   bordercolor="#666666"
   borderopacity="1"
   objecttolerance="10"
   gridtolerance="10"
   guidetolerance="10"
   inkscape:pageopacity="0"
   inkscape:pageshadow="2"
   inkscape:window-width="1536"
   inkscape:window-height="801"
   id="namedview6959"
   showgrid="true"
   inkscape:zoom="3.337544"
   inkscape:cx="0.1933546"
   inkscape:cy="21.641606"
   inkscape:window-x="-8"
   inkscape:window-y="-8"
   inkscape:window-maximized="1"
   inkscape:current-layer="Layer_1"><inkscape:grid
     type="xygrid"
     id="grid7562" /></sodipodi:namedview>
<style
   type="text/css"
   id="style6912">
	.st0{fill:#FFFFFF;stroke:#02E677;stroke-miterlimit:10;}
	.st1{fill:none;stroke:#02E677;stroke-miterlimit:10;}
	.st2{fill:#02E677;}
	.st3{fill:#FFFFFF;}
</style>













<path
   style="fill:none;stroke:#ffffff;stroke-width:1.15250421;stroke-miterlimit:10;stroke-opacity:1"
   inkscape:connector-curvature="0"
   class="st0"
   d="m 54.904097,58.088619 c 1.614936,2.533264 2.653109,5.527122 2.653109,8.866425 0,8.866424 -7.267212,16.120771 -16.149359,16.120771 -8.882148,0 -16.14936,-7.254347 -16.14936,-16.120771 0,-3.224155 0.92282,-6.102864 2.537756,-8.636128"
   id="path6914" /><path
   style="fill:none;stroke:#ffffff;stroke-width:1.15250421;stroke-miterlimit:10;stroke-opacity:1"
   inkscape:connector-curvature="0"
   class="st0"
   d="m 29.180474,56.706839 c 2.999167,-3.5696 7.382565,-5.757419 12.458078,-5.757419 4.49875,0 8.651442,1.842374 11.535257,4.95138"
   id="path6916" /><path
   style="fill:#ffffff;stroke:#02e677;stroke-width:1.15250421;stroke-miterlimit:10"
   inkscape:connector-curvature="0"
   class="st0"
   d="M 63.670893,46.458634"
   id="path6918" /><path
   style="fill:#ffffff;stroke:none;stroke-width:1.15250421;stroke-miterlimit:10;stroke-opacity:1"
   d="M 79.128906 12.951172 C 67.939707 12.951172 58.826172 22.047405 58.826172 33.216797 C 58.826172 38.283326 60.670755 42.889384 63.669922 46.458984 L 65.515625 48.300781 C 69.091554 51.524935 73.93804 53.482422 79.128906 53.482422 C 90.318105 53.482422 99.429688 44.386189 99.429688 33.216797 C 99.429688 22.047405 90.318105 12.951172 79.128906 12.951172 z M 78.753906 20.753906 C 81.291662 20.753906 83.367723 21.330938 84.751953 22.482422 C 86.136184 23.633906 86.945312 25.245688 86.945312 27.318359 C 86.945312 28.354694 86.598247 29.275993 86.021484 30.082031 C 85.444721 31.003218 84.522666 31.69379 83.369141 32.269531 C 84.638019 32.730125 85.559837 33.420523 86.251953 34.226562 C 86.944068 35.032601 87.291016 36.184626 87.291016 37.566406 C 87.291016 39.639077 86.484077 41.250946 84.869141 42.517578 C 83.254205 43.78421 81.176429 44.359375 78.638672 44.359375 C 77.139089 44.359375 75.755206 44.130429 74.486328 43.554688 C 73.217449 42.978946 72.180279 42.171101 71.603516 41.134766 C 70.911401 40.098431 70.564453 38.948273 70.564453 37.681641 L 75.871094 37.681641 C 75.871094 38.372531 76.100971 38.947696 76.677734 39.523438 C 77.254496 39.984031 77.946438 40.330078 78.753906 40.330078 C 79.676726 40.330078 80.483902 40.099179 80.945312 39.523438 C 81.406723 38.947696 81.753906 38.372445 81.753906 37.566406 C 81.753906 36.414923 81.406841 35.609031 80.830078 35.148438 C 80.253315 34.687843 79.446376 34.457031 78.408203 34.457031 L 75.871094 34.457031 L 75.871094 30.3125 L 76.101562 30.3125 L 78.638672 30.3125 C 80.599666 30.3125 81.638672 29.391116 81.638672 27.433594 C 81.638672 26.627555 81.406723 26.050437 80.945312 25.589844 C 80.483902 25.129251 79.791843 24.900391 78.984375 24.900391 C 78.29226 24.900391 77.715435 25.129164 77.138672 25.474609 C 76.561909 25.820054 76.332031 26.396915 76.332031 26.972656 L 71.025391 26.972656 C 71.025391 25.821173 71.372337 24.669234 72.064453 23.748047 C 72.756568 22.82686 73.678506 22.021141 74.832031 21.560547 C 75.985557 20.984805 77.369675 20.753906 78.753906 20.753906 z "
   id="path6920" /><g
   id="XMLID_1_"
   transform="matrix(1.1535257,0,0,1.1514837,-8.3091111,-15.721486)"
   style="stroke:#ffffff;stroke-opacity:1">
	<line
   style="fill:none;stroke:#ffffff;stroke-miterlimit:10;stroke-opacity:1"
   class="st1"
   x1="22.6"
   y1="58.5"
   x2="30.9"
   y2="64.599998"
   id="line6923" />
	<path
   style="fill:none;stroke:#ffffff;stroke-miterlimit:10;stroke-opacity:1"
   inkscape:connector-curvature="0"
   class="st1"
   d="m 22.6,58.5 c 0.1,-0.1 0.2,-0.2 0.4,-0.4"
   id="path6925" />
	<line
   style="fill:none;stroke:#ffffff;stroke-miterlimit:10;stroke-opacity:1"
   class="st1"
   x1="22.5"
   y1="58.5"
   x2="22.6"
   y2="58.5"
   id="line6927" />
	<path
   style="fill:none;stroke:#ffffff;stroke-miterlimit:10;stroke-opacity:1"
   inkscape:connector-curvature="0"
   class="st1"
   d="m 24.1,56.6 c 0.7,-1.3 1.1,-2.7 1.1,-4.2 0,-4.7 -3.8,-8.6 -8.6,-8.6 -4.8,0 -8.6,3.8 -8.6,8.6 0,4.8 3.8,8.6 8.6,8.6 2.3,0 4.5,-0.9 6,-2.5"
   id="path6929" />
</g><line
   style="fill:none;stroke:#ffffff;stroke-width:1.15250421;stroke-miterlimit:10;stroke-opacity:1"
   class="st1"
   x1="19.952269"
   y1="48.991898"
   x2="29.41118"
   y2="56.015949"
   id="line6931" /><line
   style="fill:none;stroke:#ffffff;stroke-width:1.15250421;stroke-miterlimit:10;stroke-opacity:1"
   class="st1"
   x1="52.9431"
   y1="55.209908"
   x2="63.324833"
   y2="46.11319"
   id="line6933" /><line
   style="fill:none;stroke:#ffffff;stroke-width:1.15250421;stroke-miterlimit:10;stroke-opacity:1"
   class="st1"
   x1="55.134804"
   y1="58.549213"
   x2="66.0933"
   y2="48.646454"
   id="line6935" /><ellipse
   style="fill:#ffffff;fill-opacity:1"
   class="st2"
   cx="10.652255"
   cy="44.563297"
   id="circle6937"
   rx="10.497085"
   ry="10.478502" /><ellipse
   style="fill:#ffffff;fill-opacity:1;stroke:#ffffff;stroke-opacity:1"
   class="st2"
   cx="41.407845"
   cy="67.079414"
   rx="16.149361"
   ry="16.23592"
   id="ellipse6939" /><g
   id="g6941"
   transform="matrix(1.1535257,0,0,1.1514837,-8.3091111,-15.721486)"
   style="fill:#ffffff;fill-opacity:1">
	<g
   id="g6943"
   style="fill:#ffffff;fill-opacity:1">
		<path
   style="fill:#ffffff;fill-opacity:1"
   inkscape:connector-curvature="0"
   class="st2"
   d="m 23.4,59.1 c 2.5,1.7 4.9,3.4 7.2,5.3 1.5,1.2 3.6,-0.9 2.1,-2.1 -2.5,-2.1 -5.1,-4 -7.8,-5.8 -1.6,-1 -3.1,1.6 -1.5,2.6 l 0,0 z"
   id="path6945" />
	</g>
</g><g
   id="g6949"
   transform="matrix(1.1535257,0,0,1.1514837,-8.1502128,-15.642037)"
   style="fill:#ffffff;fill-opacity:1">
	<g
   id="g6951"
   style="fill:#ffffff;fill-opacity:1">
		<path
   style="fill:#ffffff;fill-opacity:1"
   inkscape:connector-curvature="0"
   class="st2"
   d="m 63.5,53.5 c -2.2,-0.3 -3.5,2 -5,3.4 -2.3,2.1 -4.5,4.4 -7.3,5.9 -1.7,0.9 -0.2,3.5 1.5,2.6 2.2,-1.2 4.1,-2.8 5.9,-4.5 0.8,-0.7 1.5,-1.4 2.3,-2.2 0.7,-0.6 1.7,-2.1 2.5,-2.5 -0.4,0.1 -0.8,0.1 -1.2,0.2 0.1,0 0.2,0 0.4,0.1 1.9,0.2 2.8,-2.7 0.9,-3 l 0,0 z"
   id="path6953" />
	</g>
</g>
<path
   style="fill:none;stroke:#ffffff;stroke-width:1.15247202;stroke-miterlimit:10;stroke-opacity:1"
   inkscape:connector-curvature="0"
   class="st0"
   d="m 63.684807,46.451415 c -2.998579,-3.570098 -4.843858,-8.176679 -4.843858,-13.243917 0,-11.170955 9.111067,-20.26895 20.298073,-20.26895 11.187004,0 20.298072,9.097995 20.298072,20.26895 0,11.170957 -9.111068,20.268953 -20.298072,20.268953 -5.189849,0 -10.033707,-1.957801 -13.608935,-5.182405"
   id="path4145" /></svg>