<?xml version="1.0" encoding="UTF-8" standalone="no"?>
<!-- Generator: Adobe Illustrator 21.0.2, SVG Export Plug-In . SVG Version: 6.00 Build 0)  -->

<svg
   xmlns:dc="http://purl.org/dc/elements/1.1/"
   xmlns:cc="http://creativecommons.org/ns#"
   xmlns:rdf="http://www.w3.org/1999/02/22-rdf-syntax-ns#"
   xmlns:svg="http://www.w3.org/2000/svg"
   xmlns="http://www.w3.org/2000/svg"
   xmlns:sodipodi="http://sodipodi.sourceforge.net/DTD/sodipodi-0.dtd"
   xmlns:inkscape="http://www.inkscape.org/namespaces/inkscape"
   version="1.1"
   id="Layer_1"
   x="0px"
   y="0px"
   viewBox="0 0 100 100"
   style="enable-background:new 0 0 100 100;"
   xml:space="preserve"
   inkscape:version="0.91 r13725"
   sodipodi:docname="skills-qualified.svg"><metadata
   id="metadata5731"><rdf:RDF><cc:Work
       rdf:about=""><dc:format>image/svg+xml</dc:format><dc:type
         rdf:resource="http://purl.org/dc/dcmitype/StillImage" /><dc:title></dc:title></cc:Work></rdf:RDF></metadata><defs
   id="defs5729">
	

	
</defs><sodipodi:namedview
   pagecolor="#ffffff"
   bordercolor="#666666"
   borderopacity="1"
   objecttolerance="10"
   gridtolerance="10"
   guidetolerance="10"
   inkscape:pageopacity="0"
   inkscape:pageshadow="2"
   inkscape:window-width="1536"
   inkscape:window-height="801"
   id="namedview5727"
   showgrid="true"
   inkscape:zoom="4"
   inkscape:cx="11.204845"
   inkscape:cy="69.237683"
   inkscape:window-x="-8"
   inkscape:window-y="-8"
   inkscape:window-maximized="1"
   inkscape:current-layer="Layer_1"><inkscape:grid
     type="xygrid"
     id="grid6667" /></sodipodi:namedview>
<style
   type="text/css"
   id="style5686">
	.st0{fill:#FFFFFF;stroke:#02E677;stroke-miterlimit:10;}
	.st1{fill:none;stroke:#02E677;stroke-miterlimit:10;}
	.st2{fill:none;}
	.st3{enable-background:new    ;}
	.st4{fill:#02E677;}
</style>












<path
   style="fill:none;stroke:#ffffff;stroke-width:1.15178859;stroke-miterlimit:10;stroke-opacity:1"
   inkscape:connector-curvature="0"
   class="st0"
   d="m 54.930494,58.104826 c 1.615081,2.529893 2.653347,5.519766 2.653347,8.854624 0,8.854624 -7.267862,16.099317 -16.150805,16.099317 -8.882942,0 -16.150805,-7.244693 -16.150805,-16.099317 0,-3.219863 0.922904,-6.094741 2.537984,-8.624634"
   id="path5688" /><path
   style="fill:none;stroke:#ffffff;stroke-width:1.15178859;stroke-miterlimit:10;stroke-opacity:1"
   inkscape:connector-curvature="0"
   class="st0"
   d="m 29.20457,56.724884 c 2.999435,-3.564848 7.383225,-5.749756 12.459192,-5.749756 4.499153,0 8.652217,1.839922 11.536289,4.944791"
   id="path5690" /><path
   style="fill:#ffffff;stroke:#02e677;stroke-width:1.15178859;stroke-miterlimit:10"
   inkscape:connector-curvature="0"
   class="st0"
   d="M 63.698074,46.490319"
   id="path5692" /><path
   style="fill:none;stroke:#ffffff;stroke-width:1.15178859;stroke-miterlimit:10;stroke-opacity:1"
   inkscape:connector-curvature="0"
   class="st0"
   d="M 63.698074,46.490319 C 60.698639,42.92547 58.852832,38.325665 58.852832,33.26588 c 0,-11.154527 9.113669,-20.239141 20.303869,-20.239141 11.1902,0 20.303869,9.084614 20.303869,20.239141 0,11.154527 -9.113669,20.239141 -20.303869,20.239141 -5.19133,0 -10.036571,-1.954917 -13.612821,-5.17478"
   id="path5694" /><g
   id="XMLID_1_"
   transform="matrix(1.1536289,0,0,1.1499512,-8.2883695,-15.607046)"
   style="stroke:#ffffff;stroke-opacity:1">
	<line
   style="fill:none;stroke:#ffffff;stroke-miterlimit:10;stroke-opacity:1"
   class="st1"
   x1="22.6"
   y1="58.5"
   x2="30.9"
   y2="64.599998"
   id="line5697" />
	<path
   style="fill:none;stroke:#ffffff;stroke-miterlimit:10;stroke-opacity:1"
   inkscape:connector-curvature="0"
   class="st1"
   d="m 22.6,58.5 c 0.1,-0.1 0.2,-0.2 0.4,-0.4"
   id="path5699" />
	<line
   style="fill:none;stroke:#ffffff;stroke-miterlimit:10;stroke-opacity:1"
   class="st1"
   x1="22.5"
   y1="58.5"
   x2="22.6"
   y2="58.5"
   id="line5701" />
	<path
   style="fill:none;stroke:#ffffff;stroke-miterlimit:10;stroke-opacity:1"
   inkscape:connector-curvature="0"
   class="st1"
   d="m 24.1,56.6 c 0.7,-1.3 1.1,-2.7 1.1,-4.2 0,-4.7 -3.8,-8.6 -8.6,-8.6 -4.8,0 -8.6,3.8 -8.6,8.6 0,4.8 3.8,8.6 8.6,8.6 2.3,0 4.5,-0.9 6,-2.5"
   id="path5703" />
</g><line
   style="fill:none;stroke:#ffffff;stroke-width:1.15178859;stroke-miterlimit:10;stroke-opacity:1"
   class="st1"
   x1="19.975538"
   y1="49.020214"
   x2="29.435297"
   y2="56.034912"
   id="line5705" /><line
   style="fill:none;stroke:#ffffff;stroke-width:1.15178859;stroke-miterlimit:10;stroke-opacity:1"
   class="st1"
   x1="52.969322"
   y1="55.229946"
   x2="63.351982"
   y2="46.145336"
   id="line5707" /><line
   style="fill:none;stroke:#ffffff;stroke-width:1.15178859;stroke-miterlimit:10;stroke-opacity:1"
   class="st1"
   x1="55.161221"
   y1="58.564808"
   x2="66.120697"
   y2="48.675228"
   id="line5709" /><rect
   style="fill:none"
   x="69.581581"
   y="19.581461"
   class="st2"
   width="20.76532"
   height="29.323755"
   id="rect5711" /><path
   id="path5715"
   d="m 87.273475,44.256324 -16.035442,0 0,-3.449854 7.383225,-7.704673 c 1.845806,-2.069912 2.768709,-3.679844 2.768709,-4.94479 0,-1.034956 -0.230725,-1.724927 -0.692177,-2.299902 -0.461452,-0.459981 -1.038266,-0.804966 -1.845806,-0.804966 -0.80754,0 -1.499718,0.344985 -1.961169,1.034956 -0.461452,0.689971 -0.807541,1.494937 -0.807541,2.529893 l -5.306693,0 c 0,-1.379942 0.346089,-2.644888 1.038266,-3.909834 0.692178,-1.149952 1.730444,-2.069913 2.884073,-2.759883 1.268992,-0.689971 2.653346,-1.034956 4.153064,-1.034956 2.537983,0 4.38379,0.574975 5.768144,1.724926 1.384355,1.149952 1.961169,2.759883 1.961169,4.944791 0,0.91996 -0.115362,1.724926 -0.461451,2.644887 -0.346089,0.804966 -0.80754,1.724927 -1.615081,2.644888 -0.80754,0.919961 -1.845806,2.184907 -3.460886,3.794839 l -2.999435,3.449854 8.998305,0 0,4.139824 z"
   class="st4"
   inkscape:connector-curvature="0"
   style="fill:#ffffff;fill-opacity:1" /><ellipse
   style="fill:#ffffff;fill-opacity:1"
   class="st4"
   cx="10.869333"
   cy="45.003952"
   id="circle5717"
   rx="10.498023"
   ry="10.464557" /><ellipse
   style="fill:#ffffff;fill-opacity:1;stroke:#ffffff;stroke-width:0.99652362;stroke-opacity:1"
   class="st4"
   cx="41.440845"
   cy="67.004128"
   rx="16.152542"
   ry="16.10004"
   id="ellipse5719" /><g
   id="g5723"
   transform="matrix(1.1536289,0,0,1.1499512,-8.2883695,-15.607046)"
   style="fill:#ffffff;fill-opacity:1">
		<path
   id="path5725"
   d="m 23.4,59.1 c 2.5,1.7 4.9,3.4 7.2,5.3 1.5,1.2 3.6,-0.9 2.1,-2.1 -2.5,-2.1 -5.1,-4 -7.8,-5.8 -1.6,-1 -3.1,1.6 -1.5,2.6 l 0,0 z"
   class="st4"
   inkscape:connector-curvature="0"
   style="fill:#ffffff;fill-opacity:1" />
	</g>
</svg>