<?xml version="1.0" encoding="UTF-8" standalone="no"?>
<svg
   xmlns:dc="http://purl.org/dc/elements/1.1/"
   xmlns:cc="http://creativecommons.org/ns#"
   xmlns:rdf="http://www.w3.org/1999/02/22-rdf-syntax-ns#"
   xmlns:svg="http://www.w3.org/2000/svg"
   xmlns="http://www.w3.org/2000/svg"
   xmlns:sodipodi="http://sodipodi.sourceforge.net/DTD/sodipodi-0.dtd"
   xmlns:inkscape="http://www.inkscape.org/namespaces/inkscape"
   version="1.1"
   id="Layer_1"
   x="0px"
   y="0px"
   viewBox="0 0 100 100"
   style="enable-background:new 0 0 100 100;"
   xml:space="preserve"
   inkscape:version="0.91 r13725"
   sodipodi:docname="skills-intrested.svg"><metadata
   id="metadata4296"><rdf:RDF><cc:Work
       rdf:about=""><dc:format>image/svg+xml</dc:format><dc:type
         rdf:resource="http://purl.org/dc/dcmitype/StillImage" /><dc:title></dc:title></cc:Work></rdf:RDF></metadata><defs
   id="defs4294">
	

	
	
	
	
</defs><sodipodi:namedview
   pagecolor="#ffffff"
   bordercolor="#666666"
   borderopacity="1"
   objecttolerance="10"
   gridtolerance="10"
   guidetolerance="10"
   inkscape:pageopacity="0"
   inkscape:pageshadow="2"
   inkscape:window-width="1536"
   inkscape:window-height="801"
   id="namedview4292"
   showgrid="true"
   inkscape:zoom="3.337544"
   inkscape:cx="29.168996"
   inkscape:cy="57.116865"
   inkscape:window-x="-8"
   inkscape:window-y="-8"
   inkscape:window-maximized="1"
   inkscape:current-layer="Layer_1"><inkscape:grid
     type="xygrid"
     id="grid4838" /></sodipodi:namedview>
<style
   type="text/css"
   id="style4259">
	.st0{fill:#FFFFFF;stroke:#02E677;stroke-miterlimit:10;}
	.st1{fill:none;stroke:#02E677;stroke-miterlimit:10;}
	.st2{fill:none;}
	.st3{enable-background:new    ;}
	.st4{fill:#02E677;}
</style>










<path
   style="fill:none;stroke:#ffffff;stroke-width:1.15007687;stroke-miterlimit:10;stroke-opacity:1"
   inkscape:connector-curvature="0"
   class="st0"
   d="m 54.908671,58.198206 c 1.614319,2.52357 2.652096,5.50597 2.652096,8.832494 0,8.832492 -7.264435,16.059078 -16.143187,16.059078 -8.878751,0 -16.143184,-7.226586 -16.143184,-16.059078 0,-3.211816 0.922468,-6.079508 2.536786,-8.603079"
   id="path4261" /><path
   style="fill:none;stroke:#ffffff;stroke-width:1.15007687;stroke-miterlimit:10;stroke-opacity:1"
   inkscape:connector-curvature="0"
   class="st0"
   d="m 29.194884,56.821714 c 2.998021,-3.555939 7.379742,-5.735385 12.453314,-5.735385 4.49703,0 8.648134,1.835324 11.530846,4.932431"
   id="path4263" /><path
   style="fill:#ffffff;stroke:#02e677;stroke-width:1.15007687;stroke-miterlimit:10"
   inkscape:connector-curvature="0"
   class="st0"
   d="M 63.672114,46.612729"
   id="path4265" /><path
   style="fill:none;stroke:#ffffff;stroke-width:1.15007687;stroke-miterlimit:10;stroke-opacity:1"
   inkscape:connector-curvature="0"
   class="st0"
   d="m 63.672114,46.612729 c -2.998019,-3.555938 -4.842955,-8.144246 -4.842955,-13.191385 0,-11.126647 9.109369,-20.188556 20.29429,-20.188556 11.18492,0 20.29429,9.061909 20.29429,20.188556 0,11.126645 -9.10937,20.188555 -20.29429,20.188555 -5.188881,0 -10.031836,-1.950031 -13.606399,-5.161847"
   id="path4267" /><line
   id="line4270"
   y2="58.771748"
   x2="27.349951"
   y1="51.774574"
   x1="17.779346"
   class="st1"
   style="fill:none;stroke:#ffffff;stroke-width:1.15007699;stroke-miterlimit:10;stroke-opacity:1" /><path
   id="path4272"
   d="m 17.779347,51.774579 c 0.115309,-0.114709 0.230617,-0.229416 0.461234,-0.458832"
   class="st1"
   inkscape:connector-curvature="0"
   style="fill:none;stroke:#ffffff;stroke-width:1.15007699;stroke-miterlimit:10;stroke-opacity:1" /><line
   id="line4274"
   y2="51.774574"
   x2="17.779346"
   y1="51.774574"
   x1="17.664038"
   class="st1"
   style="fill:none;stroke:#ffffff;stroke-width:1.15007699;stroke-miterlimit:10;stroke-opacity:1" /><path
   id="path4276"
   d="m 19.508975,49.595132 c 0.807158,-1.491201 1.268392,-3.097109 1.268392,-4.817725 0,-5.39126 -4.381721,-9.864862 -9.916528,-9.864862 -5.5348063,0 -9.91652794,4.358894 -9.91652794,9.864862 0,5.505971 4.38172164,9.864864 9.91652794,9.864864 2.652095,0 5.188881,-1.03237 6.918508,-2.867692"
   class="st1"
   inkscape:connector-curvature="0"
   style="fill:none;stroke:#ffffff;stroke-width:1.15007699;stroke-miterlimit:10;stroke-opacity:1" /><line
   style="fill:none;stroke:#ffffff;stroke-width:1.15007687;stroke-miterlimit:10;stroke-opacity:1"
   class="st1"
   x1="19.970205"
   y1="49.136299"
   x2="29.425501"
   y2="56.133465"
   id="line4278" /><line
   style="fill:none;stroke:#ffffff;stroke-width:1.15007687;stroke-miterlimit:10;stroke-opacity:1"
   class="st1"
   x1="52.948425"
   y1="55.330513"
   x2="63.326191"
   y2="46.268604"
   id="line4280" /><line
   style="fill:none;stroke:#ffffff;stroke-width:1.15007687;stroke-miterlimit:10;stroke-opacity:1"
   class="st1"
   x1="55.139286"
   y1="58.657036"
   x2="66.09359"
   y2="48.792179"
   id="line4282" /><rect
   style="fill:none"
   x="69.552849"
   y="19.771128"
   class="st2"
   width="20.755524"
   height="29.250463"
   id="rect4284" /><path
   id="path4288"
   d="m 82.959186,44.443472 -5.645057,0 0,-17.277023 -5.522336,1.5279 0,-4.113577 10.676518,-3.525923 0.490875,0 0,23.388623 z"
   class="st4"
   inkscape:connector-curvature="0"
   style="fill:#ffffff;fill-opacity:1" /><ellipse
   style="fill:#ffffff;fill-opacity:1"
   class="st4"
   cx="10.514913"
   cy="44.777409"
   id="circle4290"
   rx="10.493072"
   ry="10.438401" />
</svg>